<svg width="91" height="15" viewBox="0 0 91 15" fill="none" xmlns="http://www.w3.org/2000/svg">
<path d="M41.3573 14.3748C41.193 14.3748 41.0298 14.3235 40.8905 14.2228C40.6311 14.0348 40.5099 13.7116 40.5805 13.3998L41.5455 9.14898L38.2728 6.27896C38.0323 6.06895 37.9404 5.73638 38.0391 5.43207C38.1379 5.12834 38.4066 4.9133 38.7248 4.88389L43.0549 4.49077L44.7668 0.48444C44.8931 0.190091 45.1805 0 45.4999 0C45.8194 0 46.1068 0.190091 46.2331 0.483754L47.945 4.49077L52.2744 4.88389C52.5933 4.91261 52.862 5.12834 52.9608 5.43207C53.0595 5.73581 52.9682 6.06895 52.7276 6.27896L49.455 9.1484L50.42 13.3991C50.4907 13.7116 50.3694 14.0348 50.1101 14.2223C49.8513 14.4097 49.5063 14.4241 49.2338 14.2604L45.4999 12.0291L41.7661 14.2616C41.6399 14.3366 41.4992 14.3748 41.3573 14.3748V14.3748ZM45.4999 11.0679C45.6419 11.0679 45.7824 11.106 45.9087 11.1809L49.4326 13.2885L48.5218 9.27647C48.4568 8.99093 48.5538 8.6928 48.7744 8.49962L51.8645 5.78959L47.7762 5.41834C47.4819 5.39144 47.2287 5.20639 47.1137 4.93516L45.4999 1.15439L43.8842 4.93573C43.7705 5.20513 43.5173 5.39019 43.2237 5.41708L39.1348 5.78834L42.2248 8.49836C42.4461 8.69212 42.543 8.98967 42.4774 9.27589L41.5673 13.2878L45.0912 11.1809C45.2174 11.106 45.358 11.0679 45.4999 11.0679V11.0679ZM43.0218 4.56825C43.0218 4.56825 43.0218 4.56894 43.0211 4.56951L43.0218 4.56825ZM47.9769 4.56642L47.9775 4.56768C47.9775 4.56699 47.9775 4.56699 47.9769 4.56642Z" fill="#F63854"/>
<path d="M60.3573 14.3748C60.193 14.3748 60.0298 14.3235 59.8905 14.2228C59.6311 14.0348 59.5099 13.7116 59.5805 13.3998L60.5455 9.14898L57.2728 6.27896C57.0323 6.06895 56.9404 5.73638 57.0391 5.43207C57.1379 5.12834 57.4066 4.9133 57.7248 4.88389L62.0549 4.49077L63.7668 0.48444C63.8931 0.190091 64.1805 0 64.4999 0C64.8194 0 65.1068 0.190091 65.2331 0.483754L66.945 4.49077L71.2744 4.88389C71.5933 4.91261 71.862 5.12834 71.9608 5.43207C72.0595 5.73581 71.9682 6.06895 71.7276 6.27896L68.455 9.1484L69.42 13.3991C69.4907 13.7116 69.3694 14.0348 69.1101 14.2223C68.8513 14.4097 68.5063 14.4241 68.2338 14.2604L64.4999 12.0291L60.7661 14.2616C60.6399 14.3366 60.4992 14.3748 60.3573 14.3748V14.3748ZM64.4999 11.0679C64.6419 11.0679 64.7824 11.106 64.9087 11.1809L68.4326 13.2885L67.5218 9.27647C67.4568 8.99093 67.5538 8.6928 67.7744 8.49962L70.8645 5.78959L66.7762 5.41834C66.4819 5.39144 66.2287 5.20639 66.1137 4.93516L64.4999 1.15439L62.8842 4.93573C62.7705 5.20513 62.5173 5.39019 62.2237 5.41708L58.1348 5.78834L61.2248 8.49836C61.4461 8.69212 61.543 8.98967 61.4774 9.27589L60.5673 13.2878L64.0912 11.1809C64.2174 11.106 64.358 11.0679 64.4999 11.0679V11.0679ZM62.0218 4.56825C62.0218 4.56825 62.0218 4.56894 62.0211 4.56951L62.0218 4.56825ZM66.9769 4.56642L66.9775 4.56768C66.9775 4.56699 66.9775 4.56699 66.9769 4.56642Z" fill="#F63854"/>
<path d="M79.3573 14.3748C79.193 14.3748 79.0298 14.3235 78.8905 14.2228C78.6311 14.0348 78.5099 13.7116 78.5805 13.3998L79.5455 9.14898L76.2728 6.27896C76.0323 6.06895 75.9404 5.73638 76.0391 5.43207C76.1379 5.12834 76.4066 4.9133 76.7248 4.88389L81.0549 4.49077L82.7668 0.48444C82.8931 0.190091 83.1805 0 83.4999 0C83.8194 0 84.1068 0.190091 84.2331 0.483754L85.945 4.49077L90.2744 4.88389C90.5933 4.91261 90.862 5.12834 90.9608 5.43207C91.0595 5.73581 90.9682 6.06895 90.7276 6.27896L87.455 9.1484L88.42 13.3991C88.4907 13.7116 88.3694 14.0348 88.1101 14.2223C87.8513 14.4097 87.5063 14.4241 87.2338 14.2604L83.4999 12.0291L79.7661 14.2616C79.6399 14.3366 79.4992 14.3748 79.3573 14.3748V14.3748ZM83.4999 11.0679C83.6419 11.0679 83.7824 11.106 83.9087 11.1809L87.4326 13.2885L86.5218 9.27647C86.4568 8.99093 86.5538 8.6928 86.7744 8.49962L89.8645 5.78959L85.7762 5.41834C85.4819 5.39144 85.2287 5.20639 85.1137 4.93516L83.4999 1.15439L81.8842 4.93573C81.7705 5.20513 81.5173 5.39019 81.2237 5.41708L77.1348 5.78834L80.2248 8.49836C80.4461 8.69212 80.543 8.98967 80.4774 9.27589L79.5673 13.2878L83.0912 11.1809C83.2174 11.106 83.358 11.0679 83.4999 11.0679V11.0679ZM81.0218 4.56825C81.0218 4.56825 81.0218 4.56894 81.0211 4.56951L81.0218 4.56825ZM85.9769 4.56642L85.9775 4.56768C85.9775 4.56699 85.9775 4.56699 85.9769 4.56642Z" fill="#F63854"/>
<path d="M14.9603 5.42779C14.8466 5.07768 14.5084 4.83714 14.0321 4.76781L10.1499 4.20283L8.41358 0.680149C8.20061 0.247994 7.86758 0 7.5 0C7.13241 0 6.79939 0.247994 6.58642 0.680264L4.85035 4.20283L0.968056 4.76781C0.491638 4.83714 0.153237 5.07768 0.0397112 5.42779C-0.0738142 5.77789 0.0587084 6.17165 0.403404 6.508L3.2127 9.25003L2.5494 13.122C2.4646 13.6172 2.60914 13.9139 2.74532 14.0757C2.90508 14.2655 3.13808 14.37 3.40141 14.37C3.59951 14.37 3.8102 14.3119 4.02775 14.1974L7.5 12.3694L10.9725 14.1975C11.1899 14.312 11.4006 14.37 11.5987 14.37H11.5988C11.862 14.37 12.0951 14.2655 12.2549 14.0757C12.391 13.914 12.5356 13.6172 12.4507 13.122L11.7875 9.25003L14.5967 6.508C14.9413 6.17165 15.0738 5.77789 14.9603 5.42779V5.42779Z" fill="#F63854"/>
<path d="M33.9603 5.42779C33.8466 5.07768 33.5084 4.83714 33.0321 4.76781L29.1499 4.20283L27.4136 0.680149C27.2006 0.247994 26.8676 0 26.5 0C26.1324 0 25.7994 0.247994 25.5864 0.680264L23.8503 4.20283L19.9681 4.76781C19.4916 4.83714 19.1532 5.07768 19.0397 5.42779C18.9262 5.77789 19.0587 6.17165 19.4034 6.508L22.2127 9.25003L21.5494 13.122C21.4646 13.6172 21.6091 13.9139 21.7453 14.0757C21.9051 14.2655 22.1381 14.37 22.4014 14.37C22.5995 14.37 22.8102 14.3119 23.0277 14.1974L26.5 12.3694L29.9725 14.1975C30.1899 14.312 30.4006 14.37 30.5987 14.37H30.5988C30.862 14.37 31.0951 14.2655 31.2549 14.0757C31.391 13.914 31.5356 13.6172 31.4507 13.122L30.7875 9.25003L33.5967 6.508C33.9413 6.17165 34.0738 5.77789 33.9603 5.42779V5.42779Z" fill="#F63854"/>
</svg>
