<svg width="35" height="35" viewBox="0 0 35 35" fill="none" xmlns="http://www.w3.org/2000/svg">
<path d="M34.0409 1.41035L34.041 1.41079C34.5041 3.55511 34.5051 5.23112 34.4987 6.9505V6.95236C34.4987 13.7386 30.8585 17.8473 25.9774 20.9611L25.7463 21.1085V21.3826V28.5219C25.7463 28.9676 25.5813 29.4853 25.2901 29.9561C24.9989 30.4269 24.6095 30.8056 24.2111 31.0043L24.2106 31.0046L17.471 34.3761C17.3048 34.45 17.1261 34.492 16.9443 34.5C16.645 34.4975 16.3585 34.3776 16.1467 34.1658C15.9328 33.952 15.8125 33.6619 15.8123 33.3594C15.8123 33.3593 15.8123 33.3593 15.8123 33.3592V26.2607V25.0538L14.9588 25.9071L13.4225 27.443L13.422 27.4436C12.7399 28.1275 11.6222 28.0326 11.0349 27.4436L11.0344 27.4431L7.55465 23.9632L7.55459 23.9631C6.87775 23.2865 6.95637 22.1751 7.55458 21.5771L7.5546 21.577L9.09094 20.0411L9.94476 19.1875H8.73744H1.64108C1.64106 19.1875 1.64104 19.1875 1.64102 19.1875C1.33847 19.1874 1.04832 19.0673 0.834353 18.8533C0.622486 18.6415 0.502492 18.355 0.500038 18.0556C0.507752 17.8741 0.549717 17.6957 0.623724 17.5297L3.99825 10.7847C3.99828 10.7846 3.99832 10.7845 3.99835 10.7845C4.19815 10.3864 4.57756 9.99749 5.04873 9.70655C5.51998 9.41556 6.03787 9.25043 6.48353 9.25H13.6071H13.8819L14.0292 9.01799C17.1356 4.12513 21.231 0.5 28.0552 0.5C29.7691 0.5 31.4458 0.500975 33.5904 0.960987L33.5906 0.961036C33.6662 0.977216 33.772 1.03235 33.8709 1.13107C33.9697 1.22983 34.0248 1.3354 34.0409 1.41035ZM29.4878 8.75029V8.75C29.4878 8.11033 29.2981 7.48503 28.9428 6.95316C28.5874 6.42129 28.0823 6.00673 27.4913 5.7619C26.9004 5.51708 26.2501 5.45298 25.6227 5.57772C24.9953 5.70245 24.419 6.01042 23.9666 6.46268C23.5143 6.91493 23.2062 7.49117 23.0813 8.11853C22.9564 8.74588 23.0203 9.39618 23.265 9.9872C23.5097 10.5782 23.9241 11.0834 24.4559 11.4389C24.9877 11.7944 25.613 11.9842 26.2526 11.9844L26.2528 11.4844L26.2529 11.9844C27.1106 11.9841 27.9332 11.6433 28.5397 11.0369C29.1463 10.4304 29.4873 9.608 29.4878 8.75029Z" fill="#F63854" stroke="white"/>
</svg>
