<svg width="35" height="36" viewBox="0 0 35 36" fill="none" xmlns="http://www.w3.org/2000/svg">
<path d="M12.0711 3.04925L30.7361 2.95268V18.3559L20.4559 18.409V21.1803H30.8154C32.0505 21.1803 33.0547 19.956 33.0547 18.4516V2.95268C33.0547 1.44835 32.0505 0.223999 30.8154 0.223999H12.0711C10.8359 0.223999 9.83167 1.44835 9.83167 2.95268V7.80357H12.096L12.0711 3.04925Z" fill="#F63854"/>
<path d="M34.2686 21.8342H20.4559V25.0614H33.0831C34.1417 25.0614 34.9999 24.0158 34.9999 22.7253C34.9999 22.2335 34.6728 21.8342 34.2686 21.8342Z" fill="#F63854"/>
<path d="M16.3066 9.92242H8.16403C6.83488 9.92242 5.75366 11.2398 5.75366 12.8594V16.9426H7.07483C7.42691 16.9426 7.75984 17.0309 8.07229 17.1708V12.8594C8.07229 12.798 8.11294 12.7476 8.16403 12.7476H16.3066C16.3576 12.7476 16.3983 12.7979 16.3983 12.8594V26.6298H9.97562V30.6234H16.3067C17.6359 30.6234 18.7171 29.306 18.7171 27.6864V12.8594C18.717 11.2399 17.6358 9.92242 16.3066 9.92242ZM12.2353 29.3323C11.9422 29.3323 11.6942 29.122 11.5685 28.8232C11.5153 28.6971 11.4779 28.5598 11.4779 28.4088C11.4779 27.899 11.8176 27.486 12.2353 27.486C12.6532 27.486 12.9928 27.899 12.9928 28.4088C12.9928 28.5599 12.9554 28.6971 12.9022 28.8232C12.7765 29.122 12.5285 29.3323 12.2353 29.3323Z" fill="#F63854"/>
<path d="M7.07492 18.7083H1.45145C0.650967 18.7083 0 19.5022 0 20.4774V33.4554C0 34.4308 0.650967 35.224 1.45145 35.224H7.07484C7.87532 35.224 8.52636 34.4308 8.52636 33.4554V20.4774C8.52644 19.5022 7.8754 18.7083 7.07492 18.7083ZM1.73901 20.8271H6.78736V32.0456H1.73901V20.8271ZM4.26369 34.3646C4.10409 34.3646 3.96147 34.2859 3.85267 34.1646C3.72936 34.028 3.65003 33.8363 3.65003 33.6176C3.65003 33.2051 3.92409 32.8713 4.26369 32.8713C4.60104 32.8713 4.87517 33.2051 4.87517 33.6176C4.87517 33.8363 4.79584 34.0279 4.67355 34.1646C4.5649 34.2859 4.42228 34.3646 4.26369 34.3646Z" fill="#F63854"/>
</svg>
