<svg width="35" height="35" viewBox="0 0 35 35" fill="none" xmlns="http://www.w3.org/2000/svg">
<path d="M0 0C37.3125 0 28.6406 24.7891 28.6797 28.6172L35 35H32.9688L27.4688 29.4375C24.4219 29.7656 17.75 32.1328 10.7187 26.5469C3.67188 20.9609 4.0625 14.2734 0 0ZM6.22656 3.59375C2.34375 1.75781 5.82031 4.3125 5.82031 4.3125C9.35156 6.75 10.9766 10.0703 12.8672 13.6797C15.3281 18.3828 19.0391 24.5937 24.1328 26.7812C29.2109 28.9687 26.8047 27.7578 24.6016 26.1172C22.3984 24.4609 19.2734 19.3203 17.4922 15.9453C15.0156 11.2578 12.7266 6.67969 6.22656 3.59375V3.59375Z" fill="#F63854"/>
</svg>
