<svg width="87" height="87" viewBox="0 0 87 87" fill="none" xmlns="http://www.w3.org/2000/svg">
<circle cx="43.5" cy="43.5" r="43.5" fill="#F4F4F4"/>
<path d="M59.0998 29.9322C58.9583 28.0388 57.6937 26.4565 55.8782 25.9008L45.0242 22.5789V18.5242C45.0242 17.6824 44.3417 17 43.5 17C42.6582 17 41.9758 17.6824 41.9758 18.5242V22.5789L31.1218 25.9008C29.3063 26.4565 28.0417 28.0388 27.9002 29.9322C25.9216 56.4088 26.0004 55.2822 26.0004 55.3909C26.0004 59.9635 28.3177 64.2 32.1169 66.587C34.7917 68.2657 40.2732 69.0252 43.5 69.0252C46.7551 69.0252 52.2203 68.2583 54.8834 66.5866C58.6788 64.2023 60.9996 59.9673 60.9996 55.3909C60.9996 55.2825 61.0791 56.4182 59.0998 29.9322ZM45.0242 25.7668L54.9862 28.8157C55.5914 29.0008 56.0129 29.5283 56.06 30.1594L56.4632 35.5509H45.0242V25.7668ZM30.94 30.1593C30.9871 29.5283 31.4086 29.0008 32.0138 28.8157L41.9758 25.7668V35.5508H30.5368L30.94 30.1593ZM53.2624 64.0051C51.5595 65.0738 47.0889 65.9768 43.5 65.9768C39.9111 65.9768 35.4405 65.0738 33.7382 64.0055C30.8609 62.1979 29.0678 58.9221 29.049 55.446L30.3088 38.5993H56.6912L57.951 55.446C57.9323 58.922 56.1392 62.1979 53.2624 64.0051Z" fill="#F63854"/>
</svg>
