<svg width="87" height="87" viewBox="0 0 87 87" fill="none" xmlns="http://www.w3.org/2000/svg">
<circle cx="43.5" cy="43.5" r="43.5" fill="#F63854"/>
<path d="M51.9204 32.271L52.7589 31.726L51.9204 32.271C54.6366 36.4496 56.6659 40.0948 58.0132 43.1899C59.3669 46.2999 60 48.7829 60 50.6586C60 60.2646 52.5536 68 43.5 68C34.4464 68 27 60.2646 27 50.6586C27 48.7829 27.633 46.2999 28.9868 43.1899C30.334 40.0948 32.3633 36.4497 35.0795 32.2711L35.0795 32.2711C39.0496 26.1632 43.0806 21.1219 43.113 21.0814L43.5 20.5987L43.8863 21.0806L43.8864 21.0807C43.8865 21.0809 43.8867 21.0811 43.887 21.0814C43.9555 21.1671 47.9681 26.1906 51.9204 32.271Z" fill="#F63854" stroke="white" stroke-width="2"/>
</svg>
