<svg width="36" height="36" viewBox="0 0 36 36" fill="none" xmlns="http://www.w3.org/2000/svg">
<path d="M31.5658 19.9738L31.4967 20.3306L31.8148 20.5064L34.9549 22.2423L35.1968 21.8047L34.9569 22.2433C35.1053 22.3246 35.1752 22.4881 35.1307 22.6555C34.3364 25.0957 32.9853 27.2988 31.218 29.1276L31.218 29.1275L31.2142 29.1316C31.0967 29.2559 30.8973 29.2915 30.7275 29.1991C30.7272 29.199 30.7269 29.1988 30.7266 29.1987L27.5884 27.4639L27.2929 27.3005L27.0309 27.5136C25.7505 28.5555 24.2844 29.3664 22.7036 29.905L22.3648 30.0204V30.3782V33.85C22.3648 33.9961 22.2556 34.1473 22.0697 34.1862L22.0673 34.1867C19.562 34.7227 16.8617 34.7502 14.2272 34.1867L14.2248 34.1862C14.0389 34.1473 13.9297 33.9961 13.9297 33.85V30.3782V30.0184L13.5884 29.9041C12.0019 29.3729 10.5375 28.5628 9.26587 27.5155L9.00353 27.2994L8.7061 27.4639L5.56596 29.1997L5.56409 29.2008C5.41064 29.2865 5.20091 29.2557 5.07655 29.1276C3.30747 27.2899 1.95565 25.0845 1.16168 22.649C1.11586 22.4966 1.17797 22.3337 1.33026 22.2504L1.3322 22.2493L4.47233 20.5135L4.7904 20.3376L4.72131 19.9808C4.41651 18.4065 4.41651 16.7916 4.72131 15.2173L4.7904 14.8605L4.47233 14.6847L1.3322 12.9488L1.33026 12.9477C1.16973 12.8599 1.11366 12.6952 1.15986 12.5547L1.16043 12.5529C1.95433 10.1086 3.30676 7.90187 5.07648 6.07055L5.0765 6.07057L5.08031 6.06654C5.19779 5.94224 5.39719 5.9066 5.56697 5.99895C5.56728 5.99912 5.5676 5.99929 5.56791 5.99946L8.69829 7.73403L8.99399 7.89787L9.2562 7.68451C10.5367 6.6426 12.0028 5.83167 13.5835 5.29317L13.9223 5.17776V4.81987V1.34811C13.9223 1.20197 14.0315 1.05078 14.2174 1.01196L14.2198 1.01145C16.7251 0.475427 19.4254 0.447939 22.06 1.01146L22.0623 1.01195C22.2482 1.05078 22.3575 1.20197 22.3575 1.34811V4.81282V5.17268L22.6987 5.28695C24.2852 5.81817 25.7496 6.62823 27.0213 7.67558L27.2836 7.89163L27.581 7.72721L30.7212 5.99134L30.7231 5.99029C30.8765 5.90462 31.0861 5.93535 31.2105 6.06332C32.9796 7.90101 34.3315 10.1065 35.1254 12.542C35.1713 12.6944 35.1092 12.8573 34.9569 12.9407L34.9549 12.9417L31.8148 14.6776L31.4967 14.8534L31.5658 15.2102C31.8706 16.7846 31.8706 18.3995 31.5658 19.9738ZM11.7429 17.592C11.7429 21.0004 14.6338 23.7371 18.1399 23.7371C21.6459 23.7371 24.5368 21.0004 24.5368 17.592C24.5368 14.1836 21.6459 11.4469 18.1399 11.4469C14.6338 11.4469 11.7429 14.1836 11.7429 17.592Z" fill="#F63854" stroke="white"/>
</svg>
