<svg width="87" height="87" viewBox="0 0 87 87" fill="none" xmlns="http://www.w3.org/2000/svg">
<circle cx="43.5" cy="43.5" r="43.5" fill="#F4F4F4"/>
<path d="M33.8337 60.5412C33.4503 60.5412 33.0695 60.4216 32.7445 60.1866C32.1391 59.7479 31.8563 58.9938 32.0211 58.2661L34.2727 48.3476L26.6366 41.6509C26.0753 41.1609 25.8609 40.3849 26.0913 39.6748C26.3218 38.9661 26.9488 38.4644 27.6911 38.3957L37.7947 37.4785L41.7893 28.1304C42.0838 27.4435 42.7546 27 43.4999 27C44.2452 27 44.916 27.4435 45.2105 28.1288L49.2051 37.4785L59.307 38.3957C60.051 38.4628 60.678 38.9661 60.9085 39.6748C61.1389 40.3835 60.9258 41.1609 60.3645 41.6509L52.7284 48.3463L54.98 58.2645C55.145 58.9938 54.862 59.7479 54.2569 60.1853C53.6531 60.6227 52.848 60.6563 52.2122 60.2742L43.4999 55.0678L34.7876 60.2771C34.493 60.4521 34.1649 60.5412 33.8337 60.5412V60.5412ZM43.4999 52.825C43.831 52.825 44.1589 52.9139 44.4537 53.0888L52.676 58.0065L50.551 48.6451C50.3993 47.9788 50.6255 47.2832 51.1403 46.8325L58.3505 40.5091L48.8112 39.6428C48.1244 39.58 47.5337 39.1482 47.2653 38.5154L43.4999 29.6936L39.7299 38.5167C39.4644 39.1453 38.8738 39.5771 38.1885 39.6399L28.6479 40.5061L35.8579 46.8295C36.3743 47.2816 36.6002 47.9759 36.4472 48.6438L34.3237 58.0049L42.546 53.0888C42.8406 52.9139 43.1688 52.825 43.4999 52.825V52.825ZM37.7175 37.6593C37.7175 37.6593 37.7175 37.6609 37.7159 37.6622L37.7175 37.6593ZM49.2793 37.655L49.2809 37.6579C49.2809 37.6563 49.2809 37.6563 49.2793 37.655Z" fill="#F63854"/>
</svg>
