<svg width="35" height="35" viewBox="0 0 35 35" fill="none" xmlns="http://www.w3.org/2000/svg">
<path d="M16.9763 16.8797L16.976 16.8795L1.05261 9.65613C0.31248 9.32027 0.31246 8.16561 1.05255 7.82971C1.05257 7.82971 1.05259 7.8297 1.05261 7.82969L16.9767 0.606286L16.978 0.605691C17.1412 0.531119 17.3185 0.492523 17.4978 0.492523C17.6772 0.492523 17.8545 0.531119 18.0177 0.605693L18.0189 0.60627L33.9417 7.83037C33.9417 7.83037 33.9417 7.83038 33.9417 7.83038C34.6819 8.16626 34.6818 9.32027 33.9417 9.65613L18.0183 16.8795L18.018 16.8797C17.6846 17.0312 17.3097 17.0312 16.9763 16.8797ZM34.149 16.1461L33.9426 16.6015C34.6825 16.9368 34.6825 18.0898 33.9426 18.425L33.9426 18.4251L18.0185 25.643C17.6848 25.7941 17.3095 25.7941 16.9758 25.643L1.05243 18.4251L1.05238 18.425C0.312536 18.0898 0.312536 16.9368 1.05238 16.6015L4.81761 14.8952L15.66 19.8103L15.6601 19.8103C16.242 20.0739 16.8605 20.2083 17.4975 20.2083C18.1344 20.2083 18.7537 20.074 19.3351 19.8102L30.178 14.8952L33.9426 16.6015L34.149 16.1461ZM33.9426 25.3377L34.149 24.8823L33.9426 25.3377C34.6825 25.673 34.6825 26.826 33.9426 27.1612L33.9426 27.1613L18.0185 34.3792C17.6849 34.5303 17.3096 34.5303 16.9759 34.3792C16.9759 34.3792 16.9758 34.3792 16.9758 34.3792L1.05243 27.1613L1.05238 27.1612C0.312536 26.826 0.312536 25.673 1.05238 25.3377L0.847749 24.8862L1.05238 25.3377L4.80257 23.6382L15.66 28.5601L15.6601 28.5602C16.242 28.8238 16.8605 28.9581 17.4975 28.9581C18.1344 28.9581 18.7537 28.8239 19.3351 28.5601L30.1931 23.6382L33.9426 25.3377Z" fill="#F63854" stroke="white"/>
</svg>
